<svg xmlns="http://www.w3.org/2000/svg" version="1.1" xmlns:xlink="http://www.w3.org/1999/xlink" xmlns:svgjs="http://svgjs.dev/svgjs" width="1000" height="1000" viewBox="0 0 1000 1000"><rect width="1000" height="1000" fill="#ffffff"></rect><g transform="matrix(0.7,0,0,0.7,149.57575858629139,418.7406054879058)"><svg viewBox="0 0 396 92" data-background-color="#ffffff" preserveAspectRatio="xMidYMid meet" height="232" width="1000" xmlns="http://www.w3.org/2000/svg" xmlns:xlink="http://www.w3.org/1999/xlink"><g id="tight-bounds" transform="matrix(1,0,0,1,0.23999942832659826,0.03364856650915726)"><svg viewBox="0 0 395.52 91.93270429609758" height="91.93270429609758" width="395.52"><g><svg viewBox="0 0 395.52 91.93270429609758" height="91.93270429609758" width="395.52"><g><svg viewBox="0 0 395.52 91.93270429609758" height="91.93270429609758" width="395.52"><g id="textblocktransform"><svg viewBox="0 0 395.52 91.93270429609758" height="91.93270429609758" width="395.52" id="textblock"><g><svg viewBox="0 0 395.52 67.05951219512197" height="67.05951219512197" width="395.52"><g transform="matrix(1,0,0,1,0,0)"><svg width="395.52" viewBox="0 -35.79999923706055 211.13999938964844 35.79999923706055" height="67.05951219512197" data-palette-color="#ffa458"><path d="M25.25-2.15L31.5-2.15 31.5 0 0 0 0-2.15 6.4-2.15Q4-3.4 2-5.25L2-5.25 5.7-9.7Q11-5.1 16.7-5.1L16.7-5.1Q19.55-5.1 21.23-6.33 22.9-7.55 22.9-9.58 22.9-11.6 21.33-12.73 19.75-13.85 15.9-14.78 12.05-15.7 10.05-16.48 8.05-17.25 6.5-18.5L6.5-18.5Q3.4-20.85 3.4-25.7 3.4-30.55 6.93-33.18 10.45-35.8 15.65-35.8L15.65-35.8Q19-35.8 22.3-34.7 25.6-33.6 28-31.6L28-31.6 24.85-27.15Q23.3-28.55 20.65-29.45 18-30.35 15.43-30.35 12.85-30.35 11.2-29.3 9.55-28.25 9.55-26.13 9.55-24 11.2-22.88 12.85-21.75 18.23-20.45 23.6-19.15 26.33-16.8 29.05-14.45 29.05-10.2L29.05-10.2Q29.05-5.05 25.25-2.15L25.25-2.15ZM58.2-2.15L63.05-2.15 63.05 0 31.5 0 31.5-2.15 36.35-2.15 36.35-34.95 42.25-34.95 42.25-5.6 58.2-5.6 58.2-2.15ZM59.8-2.15L64.64-2.15 64.64-34.95 70.55-34.95 70.55-2.15 75.4-2.15 75.4 0 59.8 0 59.8-2.15ZM119.69-2.15L124.54-2.15 124.54 0 113.79 0 113.79-27.3 101.59-3.05 98.29-3.05 86.14-27.3 86.14 0 75.39 0 75.39-2.15 80.24-2.15 80.24-34.95 89.44-34.95 99.99-13 110.54-34.95 119.69-34.95 119.69-2.15ZM135.29-2.15L158.74-2.15 158.74 0 124.54 0 124.54-2.15 129.39-2.15 129.39-34.95 141.39-34.95Q149.34-34.95 152.99-31.9 156.64-28.85 156.64-22.5 156.64-16.15 152.92-13.2 149.19-10.25 141.49-10.25L141.49-10.25 135.29-10.25 135.29-2.15ZM142.14-15.6Q147.04-15.6 148.82-17.48 150.59-19.35 150.59-22.98 150.59-26.6 148.34-28.1 146.09-29.6 141.29-29.6L141.29-29.6 135.29-29.6 135.29-15.6 142.14-15.6ZM158.74-2.15L163.59-2.15 163.59-34.95 169.49-34.95 169.49-2.15 174.34-2.15 174.34 0 158.74 0 158.74-2.15ZM204.59-2.15L211.14-2.15 211.14 0 174.34 0 174.34-2.15 185.44-2.15Q181.49-4.5 179.21-8.55 176.94-12.6 176.94-17.7L176.94-17.7Q176.94-25.4 182.26-30.6 187.59-35.8 195.71-35.8 203.84-35.8 209.29-29.8L209.29-29.8 205.54-25.7Q203.04-28.1 200.81-29.05 198.59-30 195.59-30L195.59-30Q190.28-30 186.69-26.58 183.09-23.15 183.09-17.82 183.09-12.5 186.66-8.93 190.24-5.35 195.14-5.35L195.14-5.35Q198.19-5.35 200.39-6.38 202.59-7.4 204.99-9.65L204.99-9.65 208.79-5.75Q206.59-3.35 204.59-2.15L204.59-2.15Z" opacity="1" transform="matrix(1,0,0,1,0,0)" fill="#000000" class="undefined-text-0" data-fill-palette-color="primary" id="text-0"></path></svg></g></svg></g><g transform="matrix(1,0,0,1,0,82.89065359609758)"><svg viewBox="0 0 232.209792 9.0420507" height="9.0420507" width="232.209792"><g transform="matrix(1,0,0,1,0,0)"><svg width="232.209792" viewBox="2.25 -36.849998474121094 1218.6400146484375 47.349998474121094" height="9.0420507" data-palette-color="#ba3b0a"><path d="M20.1-35Q27.75-35 32.2-31.18 36.65-27.35 36.65-20.25L36.65-20.25 26.1-20.25Q26.1-23.25 24.53-25 22.95-26.75 20.05-26.75L20.05-26.75Q16.7-26.75 15.13-24.65 13.55-22.55 13.55-18.8L13.55-18.8 13.55-15.6Q13.55-11.9 15.13-9.78 16.7-7.65 19.95-7.65L19.95-7.65Q23.15-7.65 24.8-9.3 26.45-10.95 26.45-13.95L26.45-13.95 36.65-13.95Q36.65-6.9 32.33-3.15 28 0.6 20.1 0.6L20.1 0.6Q11.3 0.6 6.78-3.9 2.25-8.4 2.25-17.2L2.25-17.2Q2.25-26 6.78-30.5 11.3-35 20.1-35L20.1-35ZM55.55-27Q62.5-27 66.47-23.48 70.45-19.95 70.45-13.2L70.45-13.2Q70.45-6.45 66.47-2.93 62.5 0.6 55.55 0.6L55.55 0.6Q48.6 0.6 44.65-2.9 40.7-6.4 40.7-13.2L40.7-13.2Q40.7-20 44.65-23.5 48.6-27 55.55-27L55.55-27ZM55.55-20.25Q50.65-20.25 50.65-14.6L50.65-14.6 50.65-11.75Q50.65-6.15 55.55-6.15L55.55-6.15Q60.5-6.15 60.5-11.75L60.5-11.75 60.5-14.6Q60.5-20.25 55.55-20.25L55.55-20.25ZM110.3-27Q114.8-27 117.05-24.43 119.3-21.85 119.3-17.1L119.3-17.1 119.3 0 109.34 0 109.34-15.9Q109.34-17.6 108.52-18.63 107.7-19.65 106.2-19.65L106.2-19.65Q104.45-19.65 103.34-18.45 102.25-17.25 102.25-15.5L102.25-15.5 102.25 0 92.3 0 92.3-15.9Q92.3-17.6 91.47-18.63 90.65-19.65 89.15-19.65L89.15-19.65Q87.4-19.65 86.3-18.45 85.2-17.25 85.2-15.5L85.2-15.5 85.2 0 75.25 0 75.25-26.4 83.4-26.4 84.05-22.45Q85.55-24.55 88.02-25.78 90.5-27 93.25-27L93.25-27Q99.2-27 101.25-22.45L101.25-22.45Q102.8-24.55 105.22-25.78 107.65-27 110.3-27L110.3-27ZM142.64-27Q147.99-27 150.89-23.5 153.79-20 153.79-13.15L153.79-13.15Q153.79-6.35 150.89-2.88 147.99 0.6 142.64 0.6L142.64 0.6Q138.04 0.6 135.24-2.4L135.24-2.4 135.24 9.85 125.29 9.85 125.29-26.4 133.39-26.4 134.24-22.65Q137.14-27 142.64-27L142.64-27ZM139.54-19.65Q137.34-19.65 136.24-18.1 135.14-16.55 135.14-14.05L135.14-14.05 135.14-12.4Q135.14-9.9 136.24-8.33 137.34-6.75 139.54-6.75L139.54-6.75Q143.84-6.75 143.84-11.9L143.84-11.9 143.84-14.55Q143.84-19.65 139.54-19.65L139.54-19.65ZM174.64-27.05Q175.79-27.05 176.69-26.78 177.59-26.5 177.59-26.45L177.59-26.45 177.59-18.1 174.39-18.1Q171.29-18.1 169.91-16.5 168.54-14.9 168.54-11.75L168.54-11.75 168.54 0 158.59 0 158.59-26.4 166.74-26.4 167.39-22.4Q168.29-24.7 170.24-25.88 172.19-27.05 174.64-27.05L174.64-27.05ZM195.24-27Q202.49-27 206.31-23.6 210.14-20.2 210.14-13.2L210.14-13.2 210.14-11.5 190.34-11.5Q190.34-8.65 191.61-7.2 192.89-5.75 195.64-5.75L195.64-5.75Q198.14-5.75 199.31-6.8 200.49-7.85 200.49-9.6L200.49-9.6 210.14-9.6Q210.14-4.8 206.49-2.1 202.84 0.6 195.84 0.6L195.84 0.6Q188.49 0.6 184.44-2.83 180.39-6.25 180.39-13.2L180.39-13.2Q180.39-20 184.34-23.5 188.29-27 195.24-27L195.24-27ZM195.64-20.65Q190.94-20.65 190.39-16.2L190.39-16.2 200.09-16.2Q200.09-18.25 198.91-19.45 197.74-20.65 195.64-20.65L195.64-20.65ZM227.49-27Q232.79-27 236.46-24.93 240.14-22.85 240.14-18.5L240.14-18.5 230.89-18.5Q230.89-19.95 229.59-20.55L229.59-20.55Q228.69-21.05 227.34-21.05L227.34-21.05Q223.74-21.05 223.74-19.35L223.74-19.35Q223.74-18.4 224.99-18 226.24-17.6 229.09-17.15L229.09-17.15Q232.59-16.65 234.94-15.98 237.29-15.3 239.04-13.58 240.79-11.85 240.79-8.75L240.79-8.75Q240.79-3.7 237.01-1.55 233.24 0.6 227.14 0.6L227.14 0.6Q223.64 0.6 220.54-0.38 217.44-1.35 215.49-3.4 213.54-5.45 213.54-8.6L213.54-8.6 222.79-8.6 222.79-8.4Q222.84-6.7 224.21-6.03 225.59-5.35 227.14-5.35L227.14-5.35Q231.29-5.35 231.29-7.3L231.29-7.3Q231.29-8.3 229.99-8.75 228.69-9.2 225.74-9.7L225.74-9.7Q222.19-10.3 219.91-11 217.64-11.7 215.94-13.38 214.24-15.05 214.24-18.05L214.24-18.05Q214.24-22.9 217.91-24.95 221.59-27 227.49-27L227.49-27ZM258.03-27Q263.33-27 267.01-24.93 270.68-22.85 270.68-18.5L270.68-18.5 261.43-18.5Q261.43-19.95 260.13-20.55L260.13-20.55Q259.23-21.05 257.88-21.05L257.88-21.05Q254.28-21.05 254.28-19.35L254.28-19.35Q254.28-18.4 255.53-18 256.78-17.6 259.63-17.15L259.63-17.15Q263.13-16.65 265.48-15.98 267.83-15.3 269.58-13.58 271.33-11.85 271.33-8.75L271.33-8.75Q271.33-3.7 267.56-1.55 263.78 0.6 257.68 0.6L257.68 0.6Q254.18 0.6 251.08-0.38 247.98-1.35 246.03-3.4 244.08-5.45 244.08-8.6L244.08-8.6 253.33-8.6 253.33-8.4Q253.38-6.7 254.76-6.03 256.13-5.35 257.68-5.35L257.68-5.35Q261.83-5.35 261.83-7.3L261.83-7.3Q261.83-8.3 260.53-8.75 259.23-9.2 256.28-9.7L256.28-9.7Q252.73-10.3 250.46-11 248.18-11.7 246.48-13.38 244.78-15.05 244.78-18.05L244.78-18.05Q244.78-22.9 248.46-24.95 252.13-27 258.03-27L258.03-27ZM302.98-29.5L293.03-29.5 293.03-36.25 302.98-36.25 302.98-29.5ZM302.98 0L293.03 0 293.03-26.4 302.98-26.4 302.98 0ZM344.38-27Q348.88-27 351.13-24.43 353.38-21.85 353.38-17.1L353.38-17.1 353.38 0 343.43 0 343.43-15.9Q343.43-17.6 342.6-18.63 341.77-19.65 340.27-19.65L340.27-19.65Q338.52-19.65 337.43-18.45 336.32-17.25 336.32-15.5L336.32-15.5 336.32 0 326.38 0 326.38-15.9Q326.38-17.6 325.55-18.63 324.72-19.65 323.22-19.65L323.22-19.65Q321.47-19.65 320.38-18.45 319.27-17.25 319.27-15.5L319.27-15.5 319.27 0 309.32 0 309.32-26.4 317.47-26.4 318.13-22.45Q319.63-24.55 322.1-25.78 324.57-27 327.32-27L327.32-27Q333.27-27 335.32-22.45L335.32-22.45Q336.88-24.55 339.3-25.78 341.72-27 344.38-27L344.38-27ZM372.37-27Q378.42-27 382.22-24.98 386.02-22.95 386.02-18.4L386.02-18.4 386.02-8.1Q386.02-7.25 386.42-6.7 386.82-6.15 387.62-6.15L387.62-6.15 389.42-6.15 389.42-0.4Q389.27-0.3 388.65-0.08 388.02 0.15 386.87 0.38 385.72 0.6 384.22 0.6L384.22 0.6Q381.32 0.6 379.45-0.28 377.57-1.15 376.87-2.7L376.87-2.7Q374.97-1.2 372.62-0.3 370.27 0.6 367.12 0.6L367.12 0.6Q357.82 0.6 357.82-6.8L357.82-6.8Q357.82-10.65 359.9-12.68 361.97-14.7 365.87-15.45 369.77-16.2 376.07-16.2L376.07-16.2 376.07-17.5Q376.07-19.05 375-19.85 373.92-20.65 372.22-20.65L372.22-20.65Q370.67-20.65 369.55-20.1 368.42-19.55 368.42-18.35L368.42-18.35 368.42-18.15 358.62-18.15Q358.57-18.4 358.57-18.85L358.57-18.85Q358.57-22.6 362.15-24.8 365.72-27 372.37-27L372.37-27ZM376.07-11.5Q371.82-11.5 369.8-10.58 367.77-9.65 367.77-8.1L367.77-8.1Q367.77-5.6 371.17-5.6L371.17-5.6Q373.12-5.6 374.6-6.65 376.07-7.7 376.07-9.25L376.07-9.25 376.07-11.5ZM423.17-31.35Q423.17-28.3 421.65-26.65 420.12-25 417.07-24.2L417.07-24.2Q418.52-23.1 419.35-21.63 420.17-20.15 420.17-18.5L420.17-18.5Q420.17-14.3 417-12.15 413.82-10 409.07-10L409.07-10 405.27-10Q402.12-10 402.12-8.55L402.12-8.55Q402.12-7.85 402.82-7.43 403.52-7 405.27-7L405.27-7 414.27-7Q418.67-7 420.92-4.7 423.17-2.4 423.17 1.45L423.17 1.45Q423.17 4.3 421.67 6.35 420.17 8.4 417.62 9.45 415.07 10.5 412.07 10.5L412.07 10.5 397.37 10.5Q395.57 10.5 394.05 9.65 392.52 8.8 391.62 7.33 390.72 5.85 390.72 4.05L390.72 4.05Q390.72 2.1 391.92 0.53 393.12-1.05 394.92-1.85L394.92-1.85Q393.72-2.7 393.02-3.9 392.32-5.1 392.32-6.5L392.32-6.5Q392.32-8.45 393.77-10.03 395.22-11.6 397.37-12.15L397.37-12.15Q395.42-13.4 394.27-15.03 393.12-16.65 393.12-18.45L393.12-18.45Q393.12-23.05 396.85-25.03 400.57-27 406.72-27L406.72-27Q409.42-27 411.07-26.7L411.07-26.7Q413.52-28.25 414.25-29.53 414.97-30.8 414.97-31.35L414.97-31.35 423.17-31.35ZM406.62-21.8Q404.97-21.8 403.92-20.95 402.87-20.1 402.87-18.5L402.87-18.5Q402.87-16.85 403.85-16.03 404.82-15.2 406.62-15.2L406.62-15.2Q408.42-15.2 409.45-16.03 410.47-16.85 410.47-18.5L410.47-18.5Q410.47-20.15 409.45-20.98 408.42-21.8 406.62-21.8L406.62-21.8ZM402.77 0Q401.62 0 400.9 0.63 400.17 1.25 400.17 2.4L400.17 2.4Q400.17 3.55 400.92 4.25 401.67 4.95 402.77 4.95L402.77 4.95 410.57 4.95Q411.67 4.95 412.45 4.28 413.22 3.6 413.22 2.45L413.22 2.45Q413.22 1.3 412.47 0.65 411.72 0 410.57 0L410.57 0 402.77 0ZM440.47-27Q447.72-27 451.54-23.6 455.37-20.2 455.37-13.2L455.37-13.2 455.37-11.5 435.57-11.5Q435.57-8.65 436.84-7.2 438.12-5.75 440.87-5.75L440.87-5.75Q443.37-5.75 444.54-6.8 445.72-7.85 445.72-9.6L445.72-9.6 455.37-9.6Q455.37-4.8 451.72-2.1 448.07 0.6 441.07 0.6L441.07 0.6Q433.72 0.6 429.67-2.83 425.62-6.25 425.62-13.2L425.62-13.2Q425.62-20 429.57-23.5 433.52-27 440.47-27L440.47-27ZM440.87-20.65Q436.17-20.65 435.62-16.2L435.62-16.2 445.32-16.2Q445.32-18.25 444.14-19.45 442.97-20.65 440.87-20.65L440.87-20.65ZM472.72-27Q478.02-27 481.69-24.93 485.37-22.85 485.37-18.5L485.37-18.5 476.12-18.5Q476.12-19.95 474.82-20.55L474.82-20.55Q473.92-21.05 472.57-21.05L472.57-21.05Q468.97-21.05 468.97-19.35L468.97-19.35Q468.97-18.4 470.22-18 471.47-17.6 474.32-17.15L474.32-17.15Q477.82-16.65 480.17-15.98 482.52-15.3 484.27-13.58 486.02-11.85 486.02-8.75L486.02-8.75Q486.02-3.7 482.24-1.55 478.47 0.6 472.37 0.6L472.37 0.6Q468.87 0.6 465.77-0.38 462.67-1.35 460.72-3.4 458.77-5.45 458.77-8.6L458.77-8.6 468.02-8.6 468.02-8.4Q468.07-6.7 469.44-6.03 470.82-5.35 472.37-5.35L472.37-5.35Q476.52-5.35 476.52-7.3L476.52-7.3Q476.52-8.3 475.22-8.75 473.92-9.2 470.97-9.7L470.97-9.7Q467.42-10.3 465.14-11 462.87-11.7 461.17-13.38 459.47-15.05 459.47-18.05L459.47-18.05Q459.47-22.9 463.14-24.95 466.82-27 472.72-27L472.72-27ZM541.86 0L532.16 0 528.06-14.7 527.86-14.7 523.71 0 514.01 0 504.36-26.4 515.06-26.4 519.06-10.8 519.41-10.8 523.56-26.4 533.46-26.4 537.46-10.8 537.81-10.8 541.86-26.4 551.56-26.4 541.86 0ZM564.86-29.5L554.91-29.5 554.91-36.25 564.86-36.25 564.86-29.5ZM564.86 0L554.91 0 554.91-26.4 564.86-26.4 564.86 0ZM583.2-26.4L588.8-26.4 588.8-19.65 583.2-19.65 583.2-9.6Q583.2-7.8 583.8-6.98 584.4-6.15 586-6.15L586-6.15 588.8-6.15 588.8-0.3Q587.6 0.1 585.7 0.35 583.8 0.6 582.4 0.6L582.4 0.6Q578 0.6 575.63-1 573.25-2.6 573.25-6.45L573.25-6.45 573.25-19.65 569.55-19.65 569.55-26.4 573.65-26.4 575.8-34.4 583.2-34.4 583.2-26.4ZM603.35-23.65Q604.95-25.25 607.1-26.13 609.25-27 611.6-27L611.6-27Q616.2-27 618.5-24.45 620.8-21.9 620.8-17.1L620.8-17.1 620.8 0 610.85 0 610.85-15.9Q610.85-17.6 609.98-18.63 609.1-19.65 607.5-19.65L607.5-19.65Q605.65-19.65 604.5-18.45 603.35-17.25 603.35-15.5L603.35-15.5 603.35 0 593.4 0 593.4-36.25 603.35-36.25 603.35-23.65ZM640.4-27Q647.35-27 651.32-23.48 655.3-19.95 655.3-13.2L655.3-13.2Q655.3-6.45 651.32-2.93 647.35 0.6 640.4 0.6L640.4 0.6Q633.45 0.6 629.5-2.9 625.55-6.4 625.55-13.2L625.55-13.2Q625.55-20 629.5-23.5 633.45-27 640.4-27L640.4-27ZM640.4-20.25Q635.5-20.25 635.5-14.6L635.5-14.6 635.5-11.75Q635.5-6.15 640.4-6.15L640.4-6.15Q645.35-6.15 645.35-11.75L645.35-11.75 645.35-14.6Q645.35-20.25 640.4-20.25L640.4-20.25ZM687.4 0L679.25 0 678.6-4Q677.05-1.85 674.52-0.63 672 0.6 669.2 0.6L669.2 0.6Q664.6 0.6 662.3-1.95 660-4.5 660-9.3L660-9.3 660-26.4 669.95-26.4 669.95-10.5Q669.95-8.8 670.82-7.78 671.7-6.75 673.3-6.75L673.3-6.75Q675.15-6.75 676.3-7.95 677.45-9.15 677.45-10.9L677.45-10.9 677.45-26.4 687.4-26.4 687.4 0ZM705.44-26.4L711.04-26.4 711.04-19.65 705.44-19.65 705.44-9.6Q705.44-7.8 706.04-6.98 706.64-6.15 708.24-6.15L708.24-6.15 711.04-6.15 711.04-0.3Q709.84 0.1 707.94 0.35 706.04 0.6 704.64 0.6L704.64 0.6Q700.24 0.6 697.87-1 695.49-2.6 695.49-6.45L695.49-6.45 695.49-19.65 691.79-19.65 691.79-26.4 695.89-26.4 698.04-34.4 705.44-34.4 705.44-26.4ZM744.84-27Q750.14-27 753.81-24.93 757.49-22.85 757.49-18.5L757.49-18.5 748.24-18.5Q748.24-19.95 746.94-20.55L746.94-20.55Q746.04-21.05 744.69-21.05L744.69-21.05Q741.09-21.05 741.09-19.35L741.09-19.35Q741.09-18.4 742.34-18 743.59-17.6 746.44-17.15L746.44-17.15Q749.94-16.65 752.29-15.98 754.64-15.3 756.39-13.58 758.14-11.85 758.14-8.75L758.14-8.75Q758.14-3.7 754.36-1.55 750.59 0.6 744.49 0.6L744.49 0.6Q740.99 0.6 737.89-0.38 734.79-1.35 732.84-3.4 730.89-5.45 730.89-8.6L730.89-8.6 740.14-8.6 740.14-8.4Q740.19-6.7 741.56-6.03 742.94-5.35 744.49-5.35L744.49-5.35Q748.64-5.35 748.64-7.3L748.64-7.3Q748.64-8.3 747.34-8.75 746.04-9.2 743.09-9.7L743.09-9.7Q739.54-10.3 737.26-11 734.99-11.7 733.29-13.38 731.59-15.05 731.59-18.05L731.59-18.05Q731.59-22.9 735.26-24.95 738.94-27 744.84-27L744.84-27ZM775.89-27Q781.94-27 785.74-24.98 789.54-22.95 789.54-18.4L789.54-18.4 789.54-8.1Q789.54-7.25 789.94-6.7 790.34-6.15 791.14-6.15L791.14-6.15 792.94-6.15 792.94-0.4Q792.79-0.3 792.16-0.08 791.54 0.15 790.39 0.38 789.24 0.6 787.74 0.6L787.74 0.6Q784.84 0.6 782.96-0.28 781.09-1.15 780.39-2.7L780.39-2.7Q778.49-1.2 776.14-0.3 773.79 0.6 770.64 0.6L770.64 0.6Q761.34 0.6 761.34-6.8L761.34-6.8Q761.34-10.65 763.41-12.68 765.49-14.7 769.39-15.45 773.29-16.2 779.59-16.2L779.59-16.2 779.59-17.5Q779.59-19.05 778.51-19.85 777.44-20.65 775.74-20.65L775.74-20.65Q774.19-20.65 773.06-20.1 771.94-19.55 771.94-18.35L771.94-18.35 771.94-18.15 762.14-18.15Q762.09-18.4 762.09-18.85L762.09-18.85Q762.09-22.6 765.66-24.8 769.24-27 775.89-27L775.89-27ZM779.59-11.5Q775.34-11.5 773.31-10.58 771.29-9.65 771.29-8.1L771.29-8.1Q771.29-5.6 774.69-5.6L774.69-5.6Q776.64-5.6 778.11-6.65 779.59-7.7 779.59-9.25L779.59-9.25 779.59-11.5ZM809.83-27Q816.33-27 820.36-24.23 824.38-21.45 824.38-15.75L824.38-15.75 814.73-15.75Q814.73-20.25 809.83-20.25L809.83-20.25Q804.93-20.25 804.93-14.6L804.93-14.6 804.93-11.75Q804.93-6.15 810.03-6.15L810.03-6.15Q815.13-6.15 815.13-10.75L815.13-10.75 824.38-10.75Q824.38-5 820.36-2.2 816.33 0.6 809.83 0.6L809.83 0.6Q802.88 0.6 798.93-2.9 794.98-6.4 794.98-13.2L794.98-13.2Q794.98-20 798.93-23.5 802.88-27 809.83-27L809.83-27ZM845.58-27.05Q846.73-27.05 847.63-26.78 848.53-26.5 848.53-26.45L848.53-26.45 848.53-18.1 845.33-18.1Q842.23-18.1 840.86-16.5 839.48-14.9 839.48-11.75L839.48-11.75 839.48 0 829.53 0 829.53-26.4 837.68-26.4 838.33-22.4Q839.23-24.7 841.18-25.88 843.13-27.05 845.58-27.05L845.58-27.05ZM862.03-29.5L852.08-29.5 852.08-36.25 862.03-36.25 862.03-29.5ZM862.03 0L852.08 0 852.08-26.4 862.03-26.4 862.03 0ZM879.13-36.85Q880.23-36.85 881.88-36.58 883.53-36.3 884.53-35.95L884.53-35.95 884.53-30.1 882.23-30.1Q880.63-30.1 880.03-29.5 879.43-28.9 879.43-27.45L879.43-27.45 879.43-26.4 884.53-26.4 884.53-19.65 879.43-19.65 879.43 0 869.48 0 869.48-19.65 865.78-19.65 865.78-26.4 869.48-26.4 869.48-27.5Q869.48-32.6 871.98-34.73 874.48-36.85 879.13-36.85L879.13-36.85ZM898.12-29.5L888.17-29.5 888.17-36.25 898.12-36.25 898.12-29.5ZM898.12 0L888.17 0 888.17-26.4 898.12-26.4 898.12 0ZM918.12-27Q924.62-27 928.65-24.23 932.67-21.45 932.67-15.75L932.67-15.75 923.02-15.75Q923.02-20.25 918.12-20.25L918.12-20.25Q913.22-20.25 913.22-14.6L913.22-14.6 913.22-11.75Q913.22-6.15 918.32-6.15L918.32-6.15Q923.42-6.15 923.42-10.75L923.42-10.75 932.67-10.75Q932.67-5 928.65-2.2 924.62 0.6 918.12 0.6L918.12 0.6Q911.17 0.6 907.22-2.9 903.27-6.4 903.27-13.2L903.27-13.2Q903.27-20 907.22-23.5 911.17-27 918.12-27L918.12-27ZM948.12-29.5L938.17-29.5 938.17-36.25 948.12-36.25 948.12-29.5ZM948.12 0L938.17 0 938.17-26.4 948.12-26.4 948.12 0ZM972.67-27Q977.27-27 979.57-24.45 981.87-21.9 981.87-17.1L981.87-17.1 981.87 0 971.92 0 971.92-15.9Q971.92-17.6 971.04-18.63 970.17-19.65 968.57-19.65L968.57-19.65Q966.72-19.65 965.57-18.45 964.42-17.25 964.42-15.5L964.42-15.5 964.42 0 954.47 0 954.47-26.4 962.62-26.4 963.27-22.4Q964.82-24.5 967.34-25.75 969.87-27 972.67-27L972.67-27ZM1017.51-31.35Q1017.51-28.3 1015.99-26.65 1014.46-25 1011.41-24.2L1011.41-24.2Q1012.86-23.1 1013.69-21.63 1014.51-20.15 1014.51-18.5L1014.51-18.5Q1014.51-14.3 1011.34-12.15 1008.16-10 1003.41-10L1003.41-10 999.61-10Q996.46-10 996.46-8.55L996.46-8.55Q996.46-7.85 997.16-7.43 997.86-7 999.61-7L999.61-7 1008.61-7Q1013.01-7 1015.26-4.7 1017.51-2.4 1017.51 1.45L1017.51 1.45Q1017.51 4.3 1016.01 6.35 1014.51 8.4 1011.96 9.45 1009.41 10.5 1006.41 10.5L1006.41 10.5 991.71 10.5Q989.91 10.5 988.39 9.65 986.86 8.8 985.96 7.33 985.06 5.85 985.06 4.05L985.06 4.05Q985.06 2.1 986.26 0.53 987.46-1.05 989.26-1.85L989.26-1.85Q988.06-2.7 987.36-3.9 986.66-5.1 986.66-6.5L986.66-6.5Q986.66-8.45 988.11-10.03 989.56-11.6 991.71-12.15L991.71-12.15Q989.76-13.4 988.61-15.03 987.46-16.65 987.46-18.45L987.46-18.45Q987.46-23.05 991.19-25.03 994.91-27 1001.06-27L1001.06-27Q1003.76-27 1005.41-26.7L1005.41-26.7Q1007.86-28.25 1008.59-29.53 1009.31-30.8 1009.31-31.35L1009.31-31.35 1017.51-31.35ZM1000.96-21.8Q999.31-21.8 998.26-20.95 997.21-20.1 997.21-18.5L997.21-18.5Q997.21-16.85 998.19-16.03 999.16-15.2 1000.96-15.2L1000.96-15.2Q1002.76-15.2 1003.79-16.03 1004.81-16.85 1004.81-18.5L1004.81-18.5Q1004.81-20.15 1003.79-20.98 1002.76-21.8 1000.96-21.8L1000.96-21.8ZM997.11 0Q995.96 0 995.24 0.63 994.51 1.25 994.51 2.4L994.51 2.4Q994.51 3.55 995.26 4.25 996.01 4.95 997.11 4.95L997.11 4.95 1004.91 4.95Q1006.01 4.95 1006.79 4.28 1007.56 3.6 1007.56 2.45L1007.56 2.45Q1007.56 1.3 1006.81 0.65 1006.06 0 1004.91 0L1004.91 0 997.11 0ZM1047.76-27Q1053.26-27 1056.16-22.65L1056.16-22.65 1057.01-26.4 1065.11-26.4 1065.11 9.85 1055.16 9.85 1055.16-2.4Q1052.36 0.6 1047.76 0.6L1047.76 0.6Q1042.41 0.6 1039.51-2.88 1036.61-6.35 1036.61-13.15L1036.61-13.15Q1036.61-20 1039.51-23.5 1042.41-27 1047.76-27L1047.76-27ZM1050.86-19.65Q1046.56-19.65 1046.56-14.55L1046.56-14.55 1046.56-11.9Q1046.56-6.75 1050.86-6.75L1050.86-6.75Q1053.06-6.75 1054.16-8.33 1055.26-9.9 1055.26-12.4L1055.26-12.4 1055.26-14.05Q1055.26-16.55 1054.16-18.1 1053.06-19.65 1050.86-19.65L1050.86-19.65ZM1098.46 0L1090.31 0 1089.66-4Q1088.11-1.85 1085.58-0.63 1083.06 0.6 1080.26 0.6L1080.26 0.6Q1075.66 0.6 1073.36-1.95 1071.06-4.5 1071.06-9.3L1071.06-9.3 1071.06-26.4 1081.01-26.4 1081.01-10.5Q1081.01-8.8 1081.88-7.78 1082.76-6.75 1084.36-6.75L1084.36-6.75Q1086.21-6.75 1087.36-7.95 1088.51-9.15 1088.51-10.9L1088.51-10.9 1088.51-26.4 1098.46-26.4 1098.46 0ZM1117.55-27Q1123.6-27 1127.4-24.98 1131.2-22.95 1131.2-18.4L1131.2-18.4 1131.2-8.1Q1131.2-7.25 1131.6-6.7 1132-6.15 1132.8-6.15L1132.8-6.15 1134.6-6.15 1134.6-0.4Q1134.45-0.3 1133.83-0.08 1133.2 0.15 1132.05 0.38 1130.9 0.6 1129.4 0.6L1129.4 0.6Q1126.5 0.6 1124.63-0.28 1122.75-1.15 1122.05-2.7L1122.05-2.7Q1120.15-1.2 1117.8-0.3 1115.45 0.6 1112.3 0.6L1112.3 0.6Q1103 0.6 1103-6.8L1103-6.8Q1103-10.65 1105.08-12.68 1107.15-14.7 1111.05-15.45 1114.95-16.2 1121.25-16.2L1121.25-16.2 1121.25-17.5Q1121.25-19.05 1120.18-19.85 1119.1-20.65 1117.4-20.65L1117.4-20.65Q1115.85-20.65 1114.73-20.1 1113.6-19.55 1113.6-18.35L1113.6-18.35 1113.6-18.15 1103.8-18.15Q1103.75-18.4 1103.75-18.85L1103.75-18.85Q1103.75-22.6 1107.33-24.8 1110.9-27 1117.55-27L1117.55-27ZM1121.25-11.5Q1117-11.5 1114.98-10.58 1112.95-9.65 1112.95-8.1L1112.95-8.1Q1112.95-5.6 1116.35-5.6L1116.35-5.6Q1118.3-5.6 1119.78-6.65 1121.25-7.7 1121.25-9.25L1121.25-9.25 1121.25-11.5ZM1148.15 0L1138.2 0 1138.2-36.25 1148.15-36.25 1148.15 0ZM1164.8-29.5L1154.85-29.5 1154.85-36.25 1164.8-36.25 1164.8-29.5ZM1164.8 0L1154.85 0 1154.85-26.4 1164.8-26.4 1164.8 0ZM1183.15-26.4L1188.75-26.4 1188.75-19.65 1183.15-19.65 1183.15-9.6Q1183.15-7.8 1183.75-6.98 1184.35-6.15 1185.95-6.15L1185.95-6.15 1188.75-6.15 1188.75-0.3Q1187.55 0.1 1185.65 0.35 1183.75 0.6 1182.35 0.6L1182.35 0.6Q1177.95 0.6 1175.57-1 1173.2-2.6 1173.2-6.45L1173.2-6.45 1173.2-19.65 1169.5-19.65 1169.5-26.4 1173.6-26.4 1175.75-34.4 1183.15-34.4 1183.15-26.4ZM1211.49-0.8Q1209.44 4.75 1206.47 7.63 1203.49 10.5 1198.14 10.5L1198.14 10.5Q1194.89 10.5 1192.39 9.6L1192.39 9.6 1192.39 3.65 1196.39 3.65Q1200.14 3.65 1200.84 0L1200.84 0 1190.34-26.4 1201.04-26.4 1206.09-8.85 1206.44-8.85 1211.09-26.4 1220.89-26.4 1211.49-0.8Z" opacity="1" transform="matrix(1,0,0,1,0,0)" fill="#000000" class="undefined-text-1" data-fill-palette-color="secondary" id="text-1"></path></svg></g></svg></g></svg></g></svg></g></svg></g><defs></defs></svg><rect width="395.52" height="91.93270429609758" fill="none" stroke="none" visibility="hidden"></rect></g></svg></g></svg>